<?xml version="1.0" encoding="UTF-8"?>
<svg width="24px" height="24px" viewBox="0 0 24 24" version="1.1" xmlns="http://www.w3.org/2000/svg" xmlns:xlink="http://www.w3.org/1999/xlink">
    <title>Icons/YouTube/Default</title>
    <g id="Icons/YouTube/Default" stroke="none" stroke-width="1" fill="none" fill-rule="evenodd">
        <path d="M23.495,6.205 C23.212191,5.19165677 22.4203432,4.39980902 21.407,4.117 C19.537,3.61598581 12.011,3.61598581 12.011,3.61598581 C12.011,3.61598581 4.504,3.606 2.615,4.117 C1.60165677,4.39980902 0.809809023,5.19165677 0.527,6.205 C0.172520594,8.11951056 -0.00223945169,10.0629628 0.00478400759,12.01 C-0.000870868833,13.9496902 0.173883448,15.8857136 0.527,17.793 C0.809809023,18.8063432 1.60165677,19.598191 2.615,19.881 C4.483,20.383 12.011,20.383 12.011,20.383 C12.011,20.383 19.517,20.383 21.407,19.881 C22.4203432,19.598191 23.212191,18.8063432 23.495,17.793 C23.8407392,15.8850228 24.0081279,13.949005 23.995,12.01 C24.0094964,10.0636506 23.8421022,8.12020397 23.495,6.205 L23.495,6.205 Z M9.609,15.601 L9.609,8.408 L15.873,12.01 L9.609,15.601 Z" id="Shape" fill="#3C3744" fill-rule="nonzero"></path>
    </g>
</svg>