<?xml version="1.0" encoding="UTF-8"?>
<svg width="24px" height="24px" viewBox="0 0 24 24" version="1.1" xmlns="http://www.w3.org/2000/svg" xmlns:xlink="http://www.w3.org/1999/xlink">
    <title>Icons/Sun/Dark</title>
    <g id="Icons/Sun/Dark" stroke="none" stroke-width="1" fill="none" fill-rule="evenodd">
        <circle id="Oval" fill="#3C3744" cx="12" cy="12" r="5"></circle>
        <g id="double" transform="translate(11.000000, 0.000000)" fill="#3C3744">
            <rect id="Rectangle" x="0" y="0" width="2" height="6" rx="1"></rect>
            <rect id="Rectangle-Copy" x="0" y="18" width="2" height="6" rx="1"></rect>
        </g>
        <g id="double" transform="translate(0.000000, 11.000000)" fill="#3C3744">
            <rect id="Rectangle" transform="translate(3.000000, 1.000000) rotate(90.000000) translate(-3.000000, -1.000000) " x="2" y="-2" width="2" height="6" rx="1"></rect>
            <rect id="Rectangle-Copy" transform="translate(21.000000, 1.000000) rotate(90.000000) translate(-21.000000, -1.000000) " x="20" y="-2" width="2" height="6" rx="1"></rect>
        </g>
        <g id="double" transform="translate(12.000000, 12.000000) rotate(-315.000000) translate(-12.000000, -12.000000) translate(0.000000, 11.000000)" fill="#3C3744">
            <rect id="Rectangle" transform="translate(3.000000, 1.000000) rotate(90.000000) translate(-3.000000, -1.000000) " x="2" y="-2" width="2" height="6" rx="1"></rect>
            <rect id="Rectangle-Copy" transform="translate(21.000000, 1.000000) rotate(90.000000) translate(-21.000000, -1.000000) " x="20" y="-2" width="2" height="6" rx="1"></rect>
        </g>
        <g id="double" transform="translate(12.000000, 12.000000) rotate(-315.000000) translate(-12.000000, -12.000000) translate(11.000000, -0.000000)" fill="#3C3744">
            <rect id="Rectangle" x="-5.68434189e-14" y="0" width="2" height="6" rx="1"></rect>
            <rect id="Rectangle-Copy" x="-5.68434189e-14" y="18" width="2" height="6" rx="1"></rect>
        </g>
    </g>
</svg>